<?xml version="1.0" standalone="no"?>
<!DOCTYPE svg PUBLIC "-//W3C//DTD SVG 20010904//EN"
 "http://www.w3.org/TR/2001/REC-SVG-20010904/DTD/svg10.dtd">
<svg version="1.0" xmlns="http://www.w3.org/2000/svg"
 width="900.000000pt" height="900.000000pt" viewBox="0 0 900.000000 900.000000"
 preserveAspectRatio="xMidYMid meet">

<g transform="translate(0.000000,900.000000) scale(0.100000,-0.100000)"
fill="#000000" stroke="none">
<path d="M5012 5729 c-73 -37 -114 -96 -186 -265 -104 -244 -162 -422 -211
-648 l-21 -99 -65 2 c-146 5 -296 -53 -381 -148 -46 -51 -108 -157 -108 -185
0 -31 -37 -56 -85 -56 -44 0 -45 1 -45 33 0 17 5 49 10 69 27 94 72 405 77
528 5 125 4 138 -15 175 -29 55 -41 68 -86 99 -58 39 -142 37 -215 -5 -106
-61 -190 -166 -416 -516 -82 -128 -150 -231 -152 -230 -1 2 9 39 23 83 51 159
42 264 -23 264 -83 0 -184 -158 -240 -373 l-18 -68 -50 -15 c-27 -9 -78 -18
-113 -21 l-63 -6 5 59 c33 333 34 451 6 486 -52 67 -162 28 -204 -74 -9 -20
-34 -116 -58 -214 -36 -157 -42 -193 -41 -294 0 -125 13 -176 59 -237 69 -91
196 -85 362 18 l77 47 33 -38 c48 -57 114 -76 204 -60 97 17 172 58 252 137
82 81 206 242 206 269 1 10 18 38 39 61 l38 43 6 -128 c7 -180 52 -298 129
-338 48 -25 194 -15 276 19 l62 26 17 -25 c25 -38 96 -83 152 -96 100 -23 256
29 349 116 l49 46 24 -35 c73 -108 234 -142 406 -84 l63 21 33 -35 c63 -67
156 -70 279 -10 63 31 158 94 178 118 7 9 26 23 42 31 27 14 31 13 60 -11 105
-89 236 -94 387 -14 41 21 75 37 76 36 1 -1 9 -27 18 -58 34 -110 95 -169 176
-169 92 0 210 79 257 172 34 68 32 103 -8 129 -42 25 -91 19 -128 -16 -14 -14
-29 -25 -33 -25 -13 0 -7 94 13 215 39 236 23 337 -63 393 -38 25 -48 27 -146
27 -187 -1 -319 -62 -483 -225 -73 -72 -105 -112 -127 -161 -17 -35 -31 -71
-31 -80 0 -18 -133 -61 -197 -63 l-38 -1 0 45 c1 25 7 134 14 242 7 108 11
208 7 223 -18 71 -107 90 -170 35 -48 -43 -59 -72 -105 -275 -53 -236 -65
-274 -101 -323 -49 -67 -129 -71 -187 -8 -72 78 -63 115 111 461 200 395 241
537 234 798 -3 118 -4 125 -31 161 -46 59 -104 75 -165 45z m1228 -1091 c0
-51 -217 -289 -275 -304 -50 -12 -75 45 -35 81 11 10 31 37 45 60 23 41 63 75
85 75 6 0 32 17 58 39 44 37 98 70 115 71 4 0 7 -10 7 -22z m-1696 -94 c19 -7
21 -46 4 -77 -34 -65 -163 -184 -223 -207 -22 -9 -31 -7 -46 6 -25 22 -24 55
1 105 58 112 192 201 264 173z"/>
<path d="M2557 5240 c-98 -77 -1 -237 114 -189 38 15 73 87 64 131 -16 69
-120 103 -178 58z"/>
<path d="M5334 5231 c-104 -45 -73 -210 39 -211 74 0 117 42 117 115 0 70 -89
125 -156 96z"/>
</g>
</svg>
