<?xml version="1.0" standalone="no"?>
<!DOCTYPE svg PUBLIC "-//W3C//DTD SVG 20010904//EN"
 "http://www.w3.org/TR/2001/REC-SVG-20010904/DTD/svg10.dtd">
<svg version="1.0" xmlns="http://www.w3.org/2000/svg"
 width="400.000000pt" height="400.000000pt" viewBox="0 0 400.000000 400.000000"
 preserveAspectRatio="xMidYMid meet">

<g transform="translate(0.000000,400.000000) scale(0.100000,-0.100000)"
fill="#000000" stroke="none">
<path d="M2241 3393 c-6 -53 -16 -103 -22 -110 -6 -7 -14 -42 -17 -78 -2 -36
-9 -65 -13 -65 -5 0 -9 7 -9 15 0 8 -4 15 -8 15 -4 0 -13 12 -20 28 -36 81
-39 79 -44 -27 -3 -55 -9 -106 -15 -113 -6 -7 -13 -26 -17 -43 -8 -33 -78
-180 -100 -207 -20 -27 -26 -22 -26 21 0 22 -6 44 -15 51 -10 8 -15 31 -15 64
l-1 51 -30 -35 c-49 -57 -102 -141 -137 -215 -58 -122 -61 -129 -68 -160 -4
-16 -10 -34 -14 -40 -5 -5 -11 -27 -15 -48 -4 -20 -11 -39 -15 -42 -5 -3 -12
-31 -16 -63 -3 -31 -12 -67 -18 -80 -12 -23 -12 -23 -37 15 -22 33 -107 108
-115 101 -1 -2 2 -35 8 -73 9 -60 8 -89 -11 -197 -12 -70 -19 -138 -15 -152 5
-20 2 -26 -10 -26 -9 0 -16 5 -16 10 0 12 -33 60 -68 99 -13 14 -28 44 -35 68
-8 33 -14 40 -24 31 -7 -6 -13 -19 -13 -30 0 -10 -9 -40 -21 -65 -17 -38 -20
-57 -15 -105 4 -31 13 -70 21 -85 8 -16 15 -40 15 -55 0 -15 5 -30 10 -33 5
-3 10 -20 10 -36 0 -37 -19 -35 -38 3 -15 33 -103 131 -110 124 -3 -3 0 -11 6
-18 5 -7 13 -34 17 -61 4 -26 11 -50 16 -53 13 -7 11 -258 -1 -270 -6 -6 -13
-100 -17 -219 -4 -143 -10 -217 -20 -235 -7 -14 -13 -31 -13 -37 0 -7 -4 -13
-9 -13 -5 0 -12 -14 -16 -30 -4 -17 -11 -30 -16 -30 -5 0 -9 -5 -9 -10 0 -18
-229 -298 -252 -308 -11 -5 -10 -32 2 -32 5 0 10 -25 12 -55 l3 -55 54 74 c30
40 64 89 75 108 88 147 113 185 158 239 75 90 187 168 397 273 227 113 334
182 421 267 36 35 78 72 93 82 44 28 162 156 211 227 81 119 155 284 192 428
30 116 35 154 40 305 9 248 -10 398 -83 637 -32 107 -52 163 -72 200 -5 9 -12
30 -16 48 -3 18 -10 32 -15 32 -4 0 -11 12 -15 27 -3 14 -12 35 -19 45 -11 15
-14 4 -25 -79z"/>
<path d="M2610 1531 c0 -28 4 -52 9 -55 5 -4 32 -1 59 5 48 12 51 11 94 -20
l45 -32 31 29 c37 35 54 72 41 94 -11 20 -70 10 -119 -20 -19 -12 -38 -22 -41
-22 -3 0 -23 16 -45 35 -57 51 -74 47 -74 -14z"/>
<path d="M2260 1521 c-22 -18 -53 -31 -83 -35 -55 -8 -66 -24 -42 -60 22 -33
30 -33 66 4 16 16 35 27 43 24 43 -17 96 50 65 82 -13 12 -19 10 -49 -15z"/>
<path d="M2010 1362 c-19 -14 -40 -33 -47 -42 -12 -16 -2 -21 70 -38 24 -6 32
-16 45 -57 20 -59 41 -67 77 -30 18 17 25 34 23 53 -3 23 -8 28 -43 32 -36 5
-41 9 -53 45 -20 63 -31 69 -72 37z"/>
<path d="M2747 1292 c-36 -40 -8 -89 53 -97 45 -6 57 -19 64 -69 4 -24 13 -51
20 -61 12 -16 15 -16 43 -1 26 13 53 57 53 87 0 4 -23 15 -51 24 -40 14 -54
24 -66 51 -9 18 -34 45 -55 59 -45 30 -41 29 -61 7z"/>
<path d="M2405 1033 c-4 -21 -11 -53 -16 -72 -15 -61 -1 -65 70 -16 28 19 53
35 56 35 3 0 24 -13 47 -30 55 -40 84 -40 92 1 11 55 7 99 -9 105 -8 4 -31 -1
-51 -11 -55 -26 -94 -21 -176 23 -4 2 -10 -14 -13 -35z"/>
</g>
</svg>
